<?xml version="1.0" encoding="UTF-8"?>
<svg id="_레이어_2" data-name="레이어 2" xmlns="http://www.w3.org/2000/svg" viewBox="0 0 571.7 398.07">
  <defs>
    <style>
      .cls-1 {
        fill: #fff;
        stroke-width: 0px;
      }
    </style>
  </defs>
  <g id="_레이어_1-2" data-name="레이어 1">
    <g>
      <path class="cls-1" d="M66.55,303.73c-1.08.43-2.17.83-3.27,1.21-7.82,2.7-16.03,4.12-24.25,4.83-2.74.24-5.51.47-8.26.47-8.22.15-17.35-.92-24.12-6.03-3.05-2.31-5.5-5.51-6.47-9.21-.21-.79-.28-1.78.38-2.26.87-.64,2.04.23,2.73,1.06,3.28,3.91,5.35,6.89,10.8,7.1,7.02.26,13.95.06,20.93-.81,5.29-.66,10.39-1.54,15.32-2.63,4.92-1.09,8.94-2.24,12.03-3.45,4.75-1.85,8.21-4.25,10.38-7.2,2.16-2.95,2.23-7.02.2-12.22-1.77-4.54-4.47-8.67-8.09-12.42-3.63-3.75-7.72-7.37-12.27-10.88-4.56-3.51-9.41-6.97-14.56-10.38-5.15-3.41-10.07-7.03-14.75-10.87-8.89-7.3-18.09-16.41-21.88-27.56-3.73-10.97.49-20.74,6.99-29.6,14.23-19.37,33.89-34.34,55.34-45.18,3.46-1.75,7.04-3.42,10.87-3.98,3.83-.57,8.01.1,10.98,2.59,4.43,3.72,5.03,10.29,4.44,16.04-2.19,21.34-15.75,39.66-22.37,60.06-.26.79-.61,1.69-1.4,1.94-.32.1-.68.07-1.01,0-2.37-.49-4.01-2.83-4.39-5.22s.25-4.82.98-7.12c3.03-9.59,7.81-18.47,12.14-27.51,3.91-8.17,9.02-17.77,8.72-27.06-.14-4.53-2.79-6.73-6.98-4.73-10.75,5.12-20.73,11.74-30.27,18.87-10.62,7.93-20.86,16.66-28.52,27.47-5.42,7.65-10.2,17.86-6.54,27.25.99,2.55,3.17,5.26,6.53,8.16,3.36,2.9,7.3,5.98,11.82,9.25,4.52,3.27,9.45,6.76,14.79,10.48,5.33,3.72,10.44,7.65,15.31,11.8,4.87,4.15,9.33,8.56,13.38,13.23,4.05,4.67,7.07,9.54,9.05,14.63,2.85,7.3,2.85,13.44.02,18.43-3.27,5.77-8.8,9.09-14.74,11.47Z"/>
      <path class="cls-1" d="M83.27,309.39c1.58-9.03,3.1-18.35,4.57-27.97,1.47-9.62,2.96-19.28,4.47-28.98,1.5-9.69,3.11-19.37,4.83-29.02,1.71-9.65,3.54-22.58,5.67-31.82.27-1.25,1.02-2.12,2.24-2.59,1.33-.52,2.73-.43,4.21.26,5.64,2.63,1.19,16.36.41,20.42-1.72,9.01-3.61,17.98-5.68,26.91,6.9-15.03,11.04-31.41,20-45.32,1.72-2.68,3.68-5.3,6.37-7.01,8.98-5.69,14.48,1.93,16.59,10.19,2.45,9.6,2.33,19.91-1.6,29.06-2.2,5.13-5.29,9.71-9.26,13.74-3.97,4.03-8.55,7.06-13.75,9.09-2.1.82-4.54,1.52-7.31,2.08-2,.41-3.99.86-5.96,1.37-3.05.78-3.88,4.77-4.68,7.37-1.07,3.48-2.15,7.46-3.26,11.98-1.11,4.51-2.2,9.23-3.26,14.17-1.07,4.94-2.03,9.49-2.9,13.65-.86,4.16-1.65,7.62-2.35,10.38-.71,2.76-1.28,4.23-1.72,4.4-1,.39-2.29.32-3.9-.2-1.6-.52-2.84-1.25-3.72-2.18ZM111.3,241.12c5.22-2.29,9.82-5.04,13.79-8.25,3.97-3.2,7.19-6.88,9.65-11.03,2.46-4.14,4.11-8.74,4.95-13.78.43-2.6.59-5.25.52-7.89-.03-1.34-.13-2.68-.28-4.01-.14-1.16-.11-3.1-.69-4.13-1.25-2.23-5.02,2.48-5.88,3.7-1.56,2.21-3.19,4.88-4.9,8.03-1.7,3.15-3.45,6.6-5.23,10.35-1.78,3.75-3.45,7.4-5,10.93-1.55,3.54-2.94,6.76-4.17,9.65-1.23,2.9-2.14,5.04-2.75,6.42Z"/>
      <path class="cls-1" d="M155.39,222.54c-1.81-4.64-2.33-10.05-1.55-16.21.78-6.16,2.44-12.2,4.98-18.09,2.54-5.9,5.83-11.19,9.86-15.89,4.32-5.03,13.34-14.01,20.53-9.39,6.19,3.98,7.51,11.74,4.89,18.2-1.69,4.17-4.13,8.2-7.31,12.12-3.19,3.92-6.71,7.46-10.57,10.62-3.86,3.16-7.34,5.35-10.44,6.56-.55.22-1.11.43-1.66.65-.55.22-1.1.3-1.62.25-.07.79-.09,1.73-.06,2.79.04,1.07.11,2.16.22,3.26.11,1.1.26,2.13.44,3.08.18.95.36,1.65.53,2.09,1.42,3.65,4.07,4.72,7.94,3.21,3.21-1.25,6.73-3.58,10.56-6.98,3.83-3.41,7.72-7.31,11.67-11.72,3.95-4.41,7.79-9.02,11.51-13.86,3.72-4.83,7.03-9.24,9.93-13.24,2.9-4,5.3-7.32,7.2-9.97,1.9-2.65,2.95-4.02,3.18-4.11,1.22-.47,2.67-.5,4.37-.08,1.69.42,2.82,1.35,3.38,2.79.3.77-.49,2.74-2.38,5.9-1.89,3.16-4.47,6.91-7.75,11.24-3.28,4.33-6.98,8.97-11.11,13.89-4.13,4.93-8.33,9.59-12.6,13.99-4.27,4.41-8.34,8.26-12.22,11.55-3.88,3.29-7.14,5.46-9.79,6.5-1.77.69-3.78,1.03-6.01,1.01-2.24-.02-4.39-.39-6.45-1.11-2.07-.72-3.96-1.83-5.69-3.32-1.73-1.49-3.05-3.4-3.95-5.72ZM163.8,202.44l1-.39c2.43-.95,4.8-2.47,7.1-4.58,2.3-2.11,4.42-4.43,6.36-6.97,1.94-2.54,3.66-5.15,5.16-7.84,1.5-2.69,2.64-5.07,3.42-7.16.78-2.09,1.16-3.73,1.13-4.93-.07-3.63-8.55,2.93-9.64,3.95-2.42,2.28-4.6,4.85-6.55,7.71s-3.57,5.88-4.87,9.07c-1.31,3.19-2.28,6.24-2.92,9.17l-.18,1.98Z"/>
      <path class="cls-1" d="M240.75,205.76c-2.94,1.42-6.29,2.02-9.46,1.32-4.11-.92-7.39-3.92-8.9-7.79-.82-2.1-1.2-4.95-1.13-8.54.06-3.59.5-7.55,1.29-11.88.8-4.32,1.87-8.76,3.22-13.3,1.35-4.54,2.92-8.75,4.72-12.64,1.68-3.62,3.68-7.5,6.12-10.68,2.38-3.11,5.95-5.68,9.87-5.54,3.9.15,7.33,3.05,8.97,6.59,1.63,3.55,1.72,7.63,1.2,11.5-.41,3.08-1.22,6.18-2.95,8.75-.21.31-.44.62-.77.79-.38.2-.83.19-1.26.14-1.88-.21-3.69-1.01-5.1-2.26-.29-.26-.57-.54-.7-.9-.22-.62.03-1.29.26-1.9,1.35-3.53,2.21-7.25,2.56-11.01.08-.84.62-4.5-1.22-3.76-.3.12-.53.35-.75.58-3.59,3.73-6.15,9.21-8.26,13.87-1.51,3.33-2.91,6.84-4.21,10.53-1.3,3.69-2.32,7.28-3.07,10.75-.75,3.48-1.18,6.7-1.29,9.68-.11,2.98.2,5.4.93,7.28.4,1.01.84,2.68,1.87,3.23,3.08,1.65,8.08-3.96,9.73-5.84,2.56-2.91,5.22-6.3,7.97-10.18,2.76-3.88,5.51-8.01,8.26-12.4,2.75-4.38,5.33-8.45,7.76-12.2,2.42-3.75,4.64-6.97,6.65-9.66,2.01-2.69,3.62-4.28,4.83-4.75,1.55-.6,2.98-.62,4.28-.05,1.31.57,2.24,1.26,2.81,2.06.08.86-.81,2.83-2.66,5.91-1.86,3.08-4.23,6.72-7.12,10.9-2.89,4.19-6.09,8.65-9.59,13.39-3.5,4.74-6.89,9.12-10.17,13.14-3.88,4.76-7.84,10.78-13.14,14.03-.5.3-1.01.59-1.54.84Z"/>
      <path class="cls-1" d="M285.91,191.63c-1.27.48-2.57.82-3.92.99-8.44,1.07-13.24-5.03-12.75-12.86.18-2.81.58-5.93,1.22-9.36.64-3.43,1.43-7.02,2.39-10.78.96-3.75,1.98-7.33,3.07-10.75,1.09-3.42,2.15-6.5,3.17-9.26,1.03-2.76,1.88-4.9,2.55-6.44l.5-.19c1-.39,2.33-.3,4.02.25,1.68.56,2.76,1.44,3.23,2.66-1.5,5.3-2.76,9.9-3.79,13.81-1.03,3.91-2.08,8.07-3.15,12.5-1.07,4.43-1.97,8.51-2.68,12.23-.72,3.72-1.07,6.73-1.07,9.02,0,2.29.56,3.22,1.66,2.79,4.31-1.68,8.35-4.56,12.11-8.64,3.76-4.08,7.39-8.81,10.9-14.19,3.51-5.38,6.89-11.16,10.15-17.34,3.26-6.17,6.47-12.24,9.63-18.19.07-.15.27-.29.6-.42.88-.35,2.09-.18,3.63.49,1.54.68,2.54,1.62,3.02,2.84.39,1-.09,3.03-1.44,6.1-1.35,3.08-3.22,6.7-5.6,10.88-2.38,4.18-5.21,8.62-8.46,13.34-3.26,4.71-6.59,9.16-9.99,13.36-4.89,6.03-11.2,14.23-19,17.18ZM289.14,122.98c-.89.35-1.91.24-3.09-.32-1.17-.56-1.67-1.58-1.48-3.05.14-.95.47-2.38,1-4.31.52-1.92,1.12-3.91,1.79-5.95.67-2.04,1.35-3.97,2.05-5.77.7-1.8,1.29-3.05,1.79-3.75,1-.39,2.26-.34,3.79.15,2.89.93,3.52,3.14,2.76,5.95-1.39,5.12-3.26,12.35-6.94,16.41l-1.66.65Z"/>
      <path class="cls-1" d="M318.65,164.98c-1.38-3.08-1.75-6.9-1.78-10.1-.03-4,.38-8.24,1.25-12.72.86-4.48,2.11-8.97,3.72-13.49,2.64-7.37,6.14-15.27,11.2-21.31,6.46-7.7,14.4-10.35,23.61-6.32.18-.2.5-.6.95-1.23.46-.62,1-1.28,1.62-1.97.62-.69,1.18-1.29,1.69-1.8.5-.51.86-.81,1.08-.9,1.22-.47,2.58-.33,4.08.42,1.5.75,2.49,1.74,2.97,2.95l.19.5c-1.17,2.88-2.41,6.23-3.72,10.05-1.31,3.83-2.54,7.78-3.69,11.86-1.15,4.08-2.18,8.05-3.1,11.91-.92,3.86-1.61,7.32-2.07,10.36-.47,3.05-.66,5.42-.57,7.1.08,1.69.57,2.36,1.45,2.01.88-.34,2.15-1.41,3.81-3.21,1.66-1.79,3.53-4.02,5.61-6.68,6.65-8.48,12.93-17.41,18.71-26.51,1.62-2.54,2.82-4.6,3.61-6.19.25-.35.59-1.02,1.03-2.02.44-1,.92-2.05,1.45-3.15.53-1.1,1-2.08,1.43-2.95.43-.87.75-1.34.97-1.43,1.22-.47,2.59-.47,4.12.02,1.53.49,2.53,1.34,3,2.56.6,1.55.21,3.96-1.19,7.25-1.39,3.29-3.38,7.02-5.95,11.21-4.88,7.94-10.31,15.55-16.31,22.69-5.15,6.12-20,28.44-28.2,13.11-1.89-3.54-1.89-7.77-1.66-11.78-3.2,5.15-6.37,10.33-9.62,15.45-2.92,4.6-5.62,10.5-12.1,9.97-3.92-.32-6.25-2.64-7.61-5.66ZM327.21,160.3c1.5-.8,2.56-2.68,3.49-4.03,1.66-2.43,3.5-5.41,5.5-8.93,2-3.52,4.07-7.35,6.22-11.5,2.14-4.15,4.03-8.13,5.66-11.95,1.63-3.82,2.88-7.24,3.74-10.25.51-1.79,1.21-4.12.7-5.99-.3-1.11-1.16-1.75-2.29-1.51-1.06.22-1.81.42-2.25.59-1.88.73-3.81,2.32-5.79,4.74-1.98,2.43-3.85,5.32-5.6,8.68-1.75,3.36-3.35,7.01-4.81,10.95-1.46,3.95-2.63,7.78-3.54,11.51-.9,3.73-1.47,7.17-1.71,10.32-.19,2.48-.16,5.01.68,7.37Z"/>
      <path class="cls-1" d="M408.35,143.94c-3.76,1.47-7.08,1.62-9.96.44-2.88-1.17-5.05-3.64-6.52-7.4-1.55-3.98-2.04-9.55-1.46-16.73.58-7.17,1.84-15.12,3.79-23.84,6.05-27.07,14.94-53.59,25.25-79.32,2.29-5.71,4.64-11.46,7.32-17,1.3-.25,2.63-.04,3.98.65,5.45,2.75.69,13.68-.74,17.51-3,8.06-5.89,16.07-8.59,24.25-2.36,7.17-4.74,14.56-7.12,22.18-2.38,7.62-4.67,15.23-6.86,22.84-2.19,7.61-4.03,14.66-5.51,21.16-1.48,6.5-2.51,12.19-3.09,17.07-.58,4.88-.44,8.42.42,10.63.78,1.99,2.1,2.62,3.98,1.89,1.44-.56,3.16-2.03,5.16-4.4,2-2.37,4.15-5.28,6.44-8.72,8.93-13.43,16.61-27.84,24.78-41.75.81-1.38,1.71-2.84,3.17-3.48,2.2-.98,4.97.47,5.88,2.7,2.08,5.1-4.86,14.02-7.32,18.15-2.62,4.4-5.54,9.01-8.75,13.83-3.22,4.82-6.43,9.32-9.64,13.51-3.21,4.19-6.13,7.74-8.74,10.67-2.62,2.93-4.59,4.66-5.91,5.17Z"/>
      <path class="cls-1" d="M283,391.75c-1.48.6-2.99,1.13-4.49,1.59-10.27,3.22-21.05,4.66-31.82,4.73-7.25.04-14.78-.62-21.06-4.23-4.09-2.35-7.54-6.01-9.02-10.49-.19-.59-.35-1.24-.11-1.8.51-1.2,2.38-1.05,3.3-.13s1.26,2.26,1.93,3.37c2.26,3.79,7.48,4.25,11.89,4.18,10.88-.16,21.82-.9,32.44-3.36,6.31-1.46,13.15-2.98,18.58-6.72,5.58-3.84,7.54-9.92,5.07-16.25-1.81-4.64-5-9.01-8.45-12.57-3.63-3.75-7.72-7.37-12.27-10.88-4.55-3.51-9.41-6.97-14.56-10.38-5.15-3.41-10.07-7.03-14.75-10.87-4.68-3.84-9.01-8.08-12.98-12.71-3.97-4.63-7.08-9.82-9.32-15.57-10.39-26.64,24.06-48.11,41.26-61.55,8.48-6.63,17.74-14.11,28.6-16.18,3.25-.62,6.58-.7,9.82.02,1.88.41,3.58,1.25,5.09,2.51,1.51,1.26,2.72,3.05,3.62,5.37.95,2.43,1.25,5.5.91,9.2-.34,3.7-1.12,7.67-2.33,11.9-1.22,4.23-2.75,8.62-4.61,13.17s-3.75,8.92-5.68,13.11c-1.93,4.19-3.79,8.1-5.56,11.72-.91,1.87-1.81,3.74-2.69,5.62-.96,2.06-1.88,3.82-1.64,6.18.04.39.11.78,0,1.16-.46,1.62-3.49.26-4.26-.44-1.08-.98-1.9-2.19-2.47-3.63-.65-1.66-.44-4.16.61-7.5,1.05-3.34,2.54-7.11,4.48-11.3,1.93-4.19,4.02-8.64,6.27-13.34,2.24-4.7,4.28-9.28,6.1-13.75,1.82-4.47,3.19-8.57,4.09-12.3.9-3.73.9-6.75,0-9.08-.39-.35-1.26-.46-2.61-.32-1.35.14-2.24.3-2.68.47-3.54,1.38-7.89,3.53-13.07,6.43-5.17,2.91-10.53,6.34-16.06,10.28-5.53,3.94-10.95,8.28-16.23,13.02-5.29,4.74-9.83,9.6-13.62,14.58-3.79,4.98-6.5,9.96-8.13,14.92-1.63,4.97-1.56,9.72.21,14.25.99,2.55,3.17,5.26,6.53,8.16,20.7,17.84,51.38,31.21,63.58,57.09,2.94,6.23,3.93,13.75,1,19.99-2.82,6-8.65,9.78-14.91,12.31Z"/>
      <path class="cls-1" d="M313.67,372.57c-2.62-5.73-3.73-12.66-3.33-20.78.4-8.12,1.52-16.52,3.36-25.2,1.84-8.68,3.99-17.13,6.45-25.35,2.46-8.22,4.52-15.27,6.18-21.14l1.02-3.26-20.57,8.02c-1.88.73-3.74,1.52-5.58,2.37-1.84.85-3.7,1.63-5.58,2.37-.77-.34-1.59-.81-2.47-1.43-.88-.61-1.53-1.47-1.96-2.58-.52-1.33-.51-2.6.03-3.84,2.5-1.1,5.05-2.16,7.65-3.17,11.1-4.33,22.17-8.69,32.94-13.8,1.42-3.23,2.79-6.82,4.11-10.78s3.2-10.26,4.4-14.04c1.2-3.78,2.3-7.24,3.31-10.37,1.01-3.13,1.98-5.46,2.92-6.97l.83-.32c.88-.34,1.98-.07,3.28.82s2.13,1.78,2.47,2.67c.54,1.06.56,2.9.05,5.52-.51,2.62-1.24,5.48-2.19,8.59-.95,3.11-2.61,8.66-3.75,11.79-.97,2.66-2.14,5.28-3.07,7.95,4.2-1.65,8.81-3.57,13.37-3.84,1.74-.11,3.29.12,4.66.67,1.36.55,2.35,1.6,2.95,3.15.17.44.35,1.08.55,1.89.19.82,0,1.33-.54,1.55l-1.66.65c-1.1-.21-2.85.03-5.26.72-2.41.68-4.89,1.52-7.43,2.51-1.88.73-3.64,1.45-5.28,2.15-1.64.71-2.9,1.23-3.78,1.57l-1.66.65-1.32,3.96c-1.28,2.92-2.75,6.9-4.42,11.95-1.66,5.04-3.32,10.6-4.97,16.66-3.41,12.51-6.13,25.24-7.79,38.11-.78,6.16-1.13,11.81-1.04,16.94.09,5.12.81,9.27,2.17,12.43.26.66.78,1.35,1.57,2.06.79.71.98,1.53.57,2.45-.2.46-.52.78-.97.95-1.88.73-3.86.71-5.95-.07-2.09-.78-3.52-2.16-4.3-4.15Z"/>
      <path class="cls-1" d="M345.34,284.38c2.85-4.58,6.83-8.35,12.56-10.58,3.54-1.38,6.61-1.84,9.2-1.39,2.6.45,4.86,1.35,6.79,2.7,3.66,2.56,6.14,6.56,7.67,10.69.71,1.92,3.83,11.34,2.21,12.69,3.17-2.64,6.24-5.4,9.2-8.27,2.96-2.87,5.7-5.63,8.24-8.28,2.53-2.64,4.74-5.07,6.63-7.27,1.88-2.2,3.39-3.96,4.53-5.3.18-.2.43-.36.76-.49.55-.21,1.19-.21,1.92.02.73.23,1.39.54,1.99.94.6.41,1.04.87,1.31,1.4.27.53.31,1.03.1,1.49-.95,2.16-2.61,4.75-4.99,7.78-2.39,3.03-5.2,6.2-8.43,9.5-3.24,3.3-6.79,6.6-10.67,9.89-3.87,3.3-7.83,6.3-11.87,9.02-1.71,7.04-4.73,13.44-9.04,19.2-4.32,5.76-9.29,9.74-14.93,11.94-5.09,1.98-9.28,2.02-12.57.12-3.29-1.9-5.6-4.57-6.94-8-2.76-7.07-2.29-15.11-1.18-22.48,1.29-8.59,2.95-18.01,7.51-25.34ZM346.14,314.7c-.57,2.77-.92,5.49-1.03,8.14-.11,2.66.29,5.14,1.19,7.47.69,1.77,1.61,2.91,2.76,3.41,1.15.51,2.94.28,5.38-.67,3.76-1.47,7.08-3.81,9.96-7.04,2.88-3.23,5.26-6.86,7.12-10.9-.51.33-1.07.61-1.68.84-.61.24-1.19.46-1.74.68-1.44.56-3.08,1.1-4.91,1.63-1.83.52-3.74.79-5.71.79-1.97,0-3.94-.31-5.91-.94-1.97-.63-3.78-1.77-5.44-3.42ZM351.13,296.13c.26.66.17,1.82-.28,3.45-.44,1.64-1.04,3.62-1.79,5.95,1.12,2.88,2.82,4.86,5.09,5.95,2.27,1.09,5.84.68,10.71-1.21,1.66-.65,3.36-1.44,5.1-2.37,1.74-.93,3.48-1.93,5.23-3,.76-3.61,1.14-7.04,1.15-10.29,0-3.25-.49-6.15-1.48-8.69-.99-2.54-2.59-4.5-4.78-5.88-2.19-1.37-5.17-1.33-8.93.14-2.55.99-5.03,2.63-7.45,4.91-2.42,2.28-4.12,4.95-5.1,8.01,1.29,1.03,2.13,2.04,2.52,3.03Z"/>
      <path class="cls-1" d="M422.01,309.29c-.75.04-1.75-.15-2.99-.55-1.24-.41-2.08-1.16-2.51-2.27-.34-.88-.34-2.76,0-5.64.34-2.87.87-6.26,1.58-10.17.7-3.91,1.58-8.04,2.62-12.39,1.04-4.35,2.08-8.46,3.13-12.31,1.05-3.85,2.07-7.18,3.08-9.99,1.01-2.81,1.83-4.54,2.48-5.17,1-.39,2.24-.14,3.73.74,1.49.88,2.45,1.88,2.88,2.98-.92,4.18-1.87,7.87-2.86,11.05-.99,3.19-1.35,5.11-1.09,5.78.11-.04.75-1.09,1.93-3.14,1.17-2.05,2.63-4.59,4.38-7.63,1.75-3.04,3.66-6.36,5.76-9.98,2.09-3.62,4.09-6.98,6.01-10.08,1.77-2.88,3.6-5.76,5.55-8.52,1.98-2.79,4.52-4.3,7.67-2.66,1.68.87,2.82,2.09,3.42,3.63.3.78.49,1.98.55,3.61.16,4.23-1.22,8.76-.52,12.93.63,3.75,2.34,3.26,3.48,6.18.52,1.33.06,2.27-1.38,2.83-6.48,2.53-9.71-4.56-10.57-10.33-14.43,16.44-26.37,34.97-31.88,56.32-.18.84-.55,1.62-1.09,2.34-.55.72-1.07,1.43-1.56,2.13l-1.79.32Z"/>
      <path class="cls-1" d="M491.45,342.79c-2.21.86-4.53,1.45-6.96,1.76-2.43.31-4.82.22-7.17-.26-2.35-.49-4.46-1.38-6.31-2.7-1.85-1.32-3.27-3.25-4.27-5.79-1.47-3.76-1.38-8.03.26-12.81,1.64-4.78,4.18-9.79,7.62-15.01,3.44-5.23,7.53-10.52,12.26-15.87,4.73-5.35,9.53-10.44,14.4-15.27,4.87-4.83,9.49-9.24,13.85-13.24,1.88-1.72,3.78-3.44,5.65-5.18,2.42-2.24,4.27-3.39,4.58-6.88.45-5.12.81-10.24.97-15.37.07-2.27.02-8.86-3.11-4.13-4.14,6.24-7.15,13.18-11.3,19.43-2.85,4.3-5.79,8.18-8.83,11.66-3.04,3.48-6,5.78-8.87,6.9-2.21.86-4.7,1.01-7.48.43-2.77-.57-4.68-2.19-5.71-4.84-.35-.88-.51-2.44-.49-4.68.02-2.24.16-4.74.41-7.52s.67-5.71,1.25-8.8c.58-3.09,1.23-5.92,1.94-8.5s1.13-3.26,2-5.13c.86-1.87,1.74-2.97,2.62-3.32,1.22-.47,2.44-.44,3.67.1,1.23.54,2.08,1.42,2.56,2.63-.53,2.25-.85,3.34-1.71,6.35-.86,3.01-1.67,6.1-2.41,9.25-.75,3.16-1.33,6.22-1.77,9.19-.35,2.37-.62,4.75-.51,7.16.01.3.04.62.24.83.4.43,1.12.15,1.61-.18,2.62-1.78,4.67-4.26,6.62-6.76,6.7-8.6,11.92-17.9,17.49-27.22,2.6-4.36,9.35-17.07,16.2-14.06,1.46.64,2.49,1.74,3.1,3.28.43,1.11.76,2.92.98,5.45.22,2.53.34,5.28.36,8.27.02,2.99-.02,5.9-.12,8.75-.1,2.84-.18,5.17-.24,6.97,5.18-5.33,10.42-11.17,15.72-17.5,4.79-5.73,9.25-11.28,12.53-18.04.38-.79.76-1.59,1.37-2.22,1.12-1.16,2.77-1.05,4.22-.66,2.08.56,3.46,2.79,2.9,4.91-.22.85-.69,1.62-1.15,2.37-4.73,7.75-9.78,15.01-15.68,21.94-3.5,4.11-7.06,8.04-10.68,11.81-3.63,3.77-7.05,7.24-10.27,10.41-.99,7.27-2.56,15.17-4.7,23.72-2.15,8.54-4.94,16.74-8.38,24.58-3.44,7.84-7.6,14.82-12.48,20.92-4.88,6.11-10.47,10.39-16.78,12.85ZM474.34,333.22c1.08,2.76,2.81,4.57,5.18,5.43,2.37.86,4.83.79,7.38-.2,2.99-1.16,5.89-3.19,8.72-6.07,2.82-2.89,5.5-6.32,8.02-10.3,2.52-3.98,4.93-8.36,7.21-13.13,2.28-4.78,4.3-9.64,6.06-14.59,1.76-4.96,3.3-9.83,4.62-14.61,1.32-4.79,2.35-9.17,3.09-13.15-2.73,2.47-6.05,5.48-9.95,9.04-3.9,3.56-7.86,7.37-11.89,11.42-4.03,4.05-7.96,8.26-11.8,12.63-3.84,4.36-7.16,8.59-9.96,12.68-2.8,4.09-4.86,7.95-6.18,11.59-1.32,3.63-1.49,6.72-.49,9.27Z"/>
    </g>
  </g>
</svg>